<svg xmlns="http://www.w3.org/2000/svg" xmlns:xlink="http://www.w3.org/1999/xlink" width="500" zoomAndPan="magnify" viewBox="0 0 375 119.999999" height="160" preserveAspectRatio="xMidYMid meet" version="1.0"><defs><g/><clipPath id="359b78d11e"><path d="M 171 1 L 332 1 L 332 120 L 171 120 Z M 171 1 " clip-rule="nonzero"/></clipPath><clipPath id="184fda8f78"><path d="M 163.628906 18.390625 L 319.613281 -19.417969 L 346.644531 92.105469 L 190.660156 129.910156 Z M 163.628906 18.390625 " clip-rule="nonzero"/></clipPath><clipPath id="cb1420f1dd"><path d="M 163.628906 18.390625 L 319.613281 -19.417969 L 346.644531 92.105469 L 190.660156 129.910156 Z M 163.628906 18.390625 " clip-rule="nonzero"/></clipPath><clipPath id="756432dd6d"><path d="M 3.257812 42.351562 L 32.507812 42.351562 L 32.507812 71.601562 L 3.257812 71.601562 Z M 3.257812 42.351562 " clip-rule="nonzero"/></clipPath></defs><g clip-path="url(#359b78d11e)"><g clip-path="url(#184fda8f78)"><g clip-path="url(#cb1420f1dd)"><path fill="#38b6ff" d="M 328.90625 33.492188 C 329.492188 35.699219 330.714844 37.019531 331.71875 37.757812 C 330.203125 39.808594 328.679688 41.851562 327.148438 43.882812 C 325.480469 42.628906 322.769531 39.96875 321.582031 35.480469 C 318.769531 39.242188 315.925781 42.980469 313.046875 46.691406 C 309.757812 50.929688 306.421875 55.132812 303.035156 59.300781 C 299.652344 63.46875 296.214844 67.59375 292.710938 71.675781 C 289.207031 75.753906 285.640625 79.785156 281.988281 83.75 C 278.332031 87.710938 274.589844 91.605469 270.714844 95.394531 C 266.839844 99.183594 262.835938 102.871094 258.59375 106.355469 C 254.34375 109.824219 249.886719 113.136719 244.816406 115.859375 C 242.269531 117.203125 239.554688 118.40625 236.492188 119.152344 C 234.953125 119.511719 233.324219 119.75 231.59375 119.726562 C 230.730469 119.714844 229.839844 119.621094 228.949219 119.464844 C 228.058594 119.289062 227.164062 119.027344 226.296875 118.675781 C 225.433594 118.3125 224.605469 117.863281 223.835938 117.335938 C 223.136719 116.800781 222.429688 116.304688 221.8125 115.65625 C 221.15625 115.0625 220.609375 114.351562 220.058594 113.652344 C 219.8125 113.28125 219.570312 112.910156 219.335938 112.535156 C 219.210938 112.347656 219.105469 112.15625 219.011719 111.960938 L 218.714844 111.371094 C 217.953125 109.800781 217.445312 108.152344 217.191406 106.554688 L 217.082031 105.949219 L 217.019531 105.355469 C 216.980469 104.960938 216.929688 104.5625 216.902344 104.167969 C 216.878906 103.394531 216.824219 102.605469 216.859375 101.851562 C 216.925781 98.796875 217.398438 95.910156 218.046875 93.144531 C 218.699219 90.371094 219.519531 87.699219 220.421875 85.085938 C 222.234375 79.863281 224.375 74.859375 226.601562 69.941406 C 228.832031 65.023438 231.15625 60.191406 233.460938 55.378906 C 235.765625 50.570312 238.050781 45.78125 240.175781 40.972656 C 242.289062 36.167969 244.277344 31.324219 245.710938 26.480469 C 246.421875 24.0625 246.980469 21.644531 247.25 19.320312 L 247.355469 18.03125 L 247.367188 17.613281 C 247.371094 17.335938 247.382812 17.054688 247.382812 16.78125 L 247.347656 15.980469 C 247.269531 14.9375 247.09375 13.964844 246.796875 13.140625 C 246.484375 12.328125 246.066406 11.667969 245.519531 11.105469 C 245.378906 10.964844 245.257812 10.808594 245.082031 10.695312 L 244.839844 10.507812 C 244.757812 10.441406 244.695312 10.375 244.582031 10.316406 C 244.382812 10.191406 244.183594 10.066406 243.984375 9.9375 L 243.355469 9.621094 C 242.503906 9.226562 241.582031 8.957031 240.59375 8.800781 C 239.605469 8.644531 238.539062 8.648438 237.453125 8.726562 C 235.269531 8.890625 232.964844 9.507812 230.691406 10.332031 C 228.414062 11.179688 226.15625 12.25 223.933594 13.457031 C 219.496094 15.886719 215.222656 18.828125 211.085938 21.980469 C 206.953125 25.140625 202.953125 28.53125 199.058594 32.058594 C 195.167969 35.589844 191.378906 39.25 187.683594 43.011719 C 185.835938 44.890625 184.011719 46.796875 182.214844 48.722656 C 181.316406 49.6875 180.425781 50.65625 179.542969 51.632812 C 178.664062 52.597656 177.773438 53.597656 176.945312 54.550781 L 171.195312 49.605469 C 172.121094 48.539062 173.007812 47.550781 173.921875 46.539062 C 174.832031 45.535156 175.746094 44.539062 176.667969 43.550781 C 178.511719 41.574219 180.378906 39.625 182.273438 37.695312 C 186.058594 33.839844 189.953125 30.082031 193.96875 26.4375 C 197.988281 22.796875 202.136719 19.277344 206.484375 15.953125 C 210.835938 12.636719 215.375 9.5 220.304688 6.796875 C 222.777344 5.457031 225.347656 4.226562 228.074219 3.214844 C 230.8125 2.226562 233.707031 1.414062 236.855469 1.164062 C 238.425781 1.050781 240.046875 1.042969 241.699219 1.300781 C 243.347656 1.550781 245.011719 2.023438 246.578125 2.753906 C 246.964844 2.949219 247.355469 3.140625 247.734375 3.34375 L 248.832031 4.035156 C 249.015625 4.140625 249.199219 4.292969 249.382812 4.433594 L 249.925781 4.863281 C 250.296875 5.136719 250.625 5.480469 250.953125 5.8125 C 252.273438 7.15625 253.277344 8.816406 253.910156 10.5 C 254.523438 12.191406 254.796875 13.871094 254.914062 15.484375 L 254.964844 16.683594 C 254.96875 17.078125 254.953125 17.464844 254.945312 17.855469 L 254.929688 18.4375 L 254.882812 19.007812 L 254.789062 20.140625 C 254.441406 23.121094 253.777344 25.917969 252.984375 28.621094 C 251.382812 34.019531 249.292969 39.070312 247.113281 44.035156 C 244.925781 48.988281 242.609375 53.835938 240.300781 58.65625 C 237.992188 63.476562 235.6875 68.261719 233.511719 73.070312 C 231.335938 77.875 229.277344 82.703125 227.585938 87.566406 C 226.746094 89.996094 226.003906 92.4375 225.433594 94.863281 C 224.859375 97.285156 224.488281 99.703125 224.441406 101.988281 C 224.410156 102.570312 224.460938 103.113281 224.46875 103.671875 C 224.488281 103.945312 224.527344 104.207031 224.550781 104.476562 L 224.589844 104.875 L 224.664062 105.257812 C 224.820312 106.296875 225.136719 107.21875 225.53125 108.046875 L 225.683594 108.355469 C 225.730469 108.460938 225.78125 108.5625 225.851562 108.652344 C 225.972656 108.839844 226.09375 109.027344 226.210938 109.21875 C 226.5 109.554688 226.75 109.921875 227.09375 110.214844 C 227.390625 110.546875 227.796875 110.800781 228.144531 111.09375 C 228.480469 111.320312 228.828125 111.507812 229.191406 111.667969 C 229.5625 111.8125 229.957031 111.929688 230.371094 112.015625 C 230.796875 112.085938 231.238281 112.136719 231.707031 112.144531 C 232.648438 112.15625 233.679688 112.019531 234.742188 111.773438 C 236.871094 111.257812 239.09375 110.3125 241.257812 109.160156 C 245.605469 106.835938 249.78125 103.769531 253.785156 100.492188 C 257.792969 97.195312 261.65625 93.648438 265.414062 89.972656 C 269.171875 86.296875 272.828125 82.492188 276.414062 78.605469 C 279.996094 74.71875 283.503906 70.753906 286.957031 66.734375 C 290.410156 62.714844 293.804688 58.636719 297.152344 54.519531 C 300.496094 50.398438 303.796875 46.238281 307.054688 42.042969 C 309.90625 38.367188 312.722656 34.667969 315.507812 30.941406 C 310.882812 31.046875 307.589844 29.136719 305.925781 27.886719 C 307.40625 25.921875 308.878906 23.949219 310.335938 21.972656 C 311.339844 22.714844 312.953125 23.511719 315.214844 23.433594 C 317.46875 23.363281 320.402344 22.402344 323.945312 19.648438 L 329.894531 23.84375 C 328.375 28.203125 328.324219 31.273438 328.90625 33.492188 Z M 328.90625 33.492188 " fill-opacity="1" fill-rule="nonzero"/></g></g></g><g clip-path="url(#756432dd6d)"><path fill="#38b6ff" d="M 32.226562 52.890625 L 32.226562 60.839844 C 22.59375 63.65625 21.15625 68.652344 21.15625 71.378906 L 12.875 71.378906 C 12.875 69.101562 13.398438 64.980469 16.5625 61.007812 L 3.273438 61.007812 L 3.273438 52.722656 L 16.5625 52.722656 C 13.398438 48.75 12.875 44.628906 12.875 42.351562 L 21.15625 42.351562 C 21.15625 45.078125 22.59375 50.074219 32.226562 52.890625 Z M 32.226562 52.890625 " fill-opacity="1" fill-rule="nonzero"/></g><g fill="#000000" fill-opacity="1"><g transform="translate(44.044339, 66.254845)"><g><path d="M 0.796875 0 L 0.796875 -27.796875 L 25.015625 -27.796875 C 27.140625 -27.796875 28.796875 -27.5 29.984375 -26.90625 C 31.179688 -26.3125 32.03125 -25.484375 32.53125 -24.421875 C 33.03125 -23.367188 33.28125 -22.140625 33.28125 -20.734375 C 33.28125 -19.828125 33.085938 -18.929688 32.703125 -18.046875 C 32.316406 -17.160156 31.78125 -16.320312 31.09375 -15.53125 C 32.3125 -14.65625 33.3125 -13.59375 34.09375 -12.34375 C 34.875 -11.101562 35.265625 -9.726562 35.265625 -8.21875 C 35.265625 -6.707031 34.945312 -5.328125 34.3125 -4.078125 C 33.675781 -2.835938 32.695312 -1.847656 31.375 -1.109375 C 30.050781 -0.367188 28.332031 0 26.21875 0 Z M 11.125 -18.03125 L 20.65625 -18.03125 C 21.1875 -18.03125 21.703125 -18.09375 22.203125 -18.21875 C 22.703125 -18.351562 22.953125 -18.796875 22.953125 -19.546875 C 22.953125 -20.304688 22.703125 -20.742188 22.203125 -20.859375 C 21.703125 -20.984375 21.1875 -21.046875 20.65625 -21.046875 L 11.125 -21.046875 Z M 11.125 -7.546875 L 22.640625 -7.546875 C 23.171875 -7.546875 23.6875 -7.601562 24.1875 -7.71875 C 24.6875 -7.84375 24.9375 -8.273438 24.9375 -9.015625 C 24.9375 -9.753906 24.6875 -10.179688 24.1875 -10.296875 C 23.6875 -10.421875 23.171875 -10.484375 22.640625 -10.484375 L 11.125 -10.484375 Z M 11.125 -7.546875 "/></g></g></g><g fill="#000000" fill-opacity="1"><g transform="translate(79.701956, 66.254845)"><g><path d="M 0.796875 0 L 0.796875 -27.796875 L 11.125 -27.796875 L 11.125 -8.734375 L 29.390625 -8.734375 L 29.390625 0 Z M 0.796875 0 "/></g></g></g><g fill="#000000" fill-opacity="1"><g transform="translate(109.482839, 66.254845)"><g><path d="M 17.875 0.390625 C 11.757812 0.390625 7.316406 -0.785156 4.546875 -3.140625 C 1.773438 -5.492188 0.390625 -9.09375 0.390625 -13.9375 C 0.390625 -18.757812 1.773438 -22.34375 4.546875 -24.6875 C 7.316406 -27.03125 11.757812 -28.203125 17.875 -28.203125 C 23.96875 -28.203125 28.398438 -27.03125 31.171875 -24.6875 C 33.953125 -22.34375 35.34375 -18.757812 35.34375 -13.9375 C 35.34375 -9.125 33.953125 -5.53125 31.171875 -3.15625 C 28.398438 -0.789062 23.96875 0.390625 17.875 0.390625 Z M 17.875 -8.34375 C 19.914062 -8.34375 21.441406 -8.609375 22.453125 -9.140625 C 23.472656 -9.671875 24.15625 -10.359375 24.5 -11.203125 C 24.84375 -12.046875 25.015625 -12.957031 25.015625 -13.9375 C 25.015625 -14.914062 24.84375 -15.820312 24.5 -16.65625 C 24.15625 -17.488281 23.472656 -18.164062 22.453125 -18.6875 C 21.441406 -19.207031 19.914062 -19.46875 17.875 -19.46875 C 15.832031 -19.46875 14.300781 -19.207031 13.28125 -18.6875 C 12.257812 -18.164062 11.578125 -17.488281 11.234375 -16.65625 C 10.890625 -15.820312 10.71875 -14.914062 10.71875 -13.9375 C 10.71875 -12.957031 10.890625 -12.035156 11.234375 -11.171875 C 11.578125 -10.316406 12.265625 -9.628906 13.296875 -9.109375 C 14.335938 -8.597656 15.863281 -8.34375 17.875 -8.34375 Z M 17.875 -8.34375 "/></g></g></g><g fill="#000000" fill-opacity="1"><g transform="translate(145.21989, 66.254845)"><g><path d="M 16.6875 0.390625 C 11.570312 0.390625 7.578125 -0.785156 4.703125 -3.140625 C 1.828125 -5.492188 0.390625 -9.09375 0.390625 -13.9375 C 0.390625 -18.757812 1.875 -22.34375 4.84375 -24.6875 C 7.8125 -27.03125 12.15625 -28.203125 17.875 -28.203125 C 29 -28.203125 34.785156 -24.375 35.234375 -16.71875 L 24.671875 -16.71875 C 24.484375 -17.4375 23.851562 -18.070312 22.78125 -18.625 C 21.707031 -19.1875 20.070312 -19.46875 17.875 -19.46875 C 15.832031 -19.46875 14.300781 -19.203125 13.28125 -18.671875 C 12.257812 -18.140625 11.578125 -17.429688 11.234375 -16.546875 C 10.890625 -15.660156 10.71875 -14.660156 10.71875 -13.546875 C 10.71875 -12.429688 10.890625 -11.382812 11.234375 -10.40625 C 11.578125 -9.425781 12.265625 -8.640625 13.296875 -8.046875 C 14.335938 -7.453125 15.863281 -7.15625 17.875 -7.15625 C 19.863281 -7.15625 21.445312 -7.328125 22.625 -7.671875 C 23.800781 -8.015625 24.484375 -8.648438 24.671875 -9.578125 L 17.203125 -9.578125 L 17.203125 -15.140625 L 35.234375 -15.140625 L 35.234375 0 L 29.265625 0 L 28.515625 -4.015625 C 27.347656 -2.640625 25.8125 -1.5625 23.90625 -0.78125 C 22 0 19.59375 0.390625 16.6875 0.390625 Z M 16.6875 0.390625 "/></g></g></g><g fill="#000000" fill-opacity="1"><g transform="translate(180.837808, 66.254845)"><g/></g></g><g fill="#000000" fill-opacity="1"><g transform="translate(196.72095, 66.254845)"><g><path d="M 0.796875 0 L 0.796875 -27.796875 L 22.640625 -27.796875 C 24.753906 -27.796875 26.601562 -27.335938 28.1875 -26.421875 C 29.78125 -25.515625 31.023438 -24.257812 31.921875 -22.65625 C 32.828125 -21.050781 33.28125 -19.21875 33.28125 -17.15625 C 33.28125 -15.09375 32.828125 -13.257812 31.921875 -11.65625 C 31.023438 -10.050781 29.78125 -8.789062 28.1875 -7.875 C 26.601562 -6.96875 24.753906 -6.515625 22.640625 -6.515625 L 11.125 -6.515625 L 11.125 0 Z M 11.125 -15.25 L 20.65625 -15.25 C 21 -15.25 21.347656 -15.273438 21.703125 -15.328125 C 22.066406 -15.378906 22.363281 -15.535156 22.59375 -15.796875 C 22.832031 -16.066406 22.953125 -16.519531 22.953125 -17.15625 C 22.953125 -17.789062 22.832031 -18.238281 22.59375 -18.5 C 22.363281 -18.769531 22.066406 -18.929688 21.703125 -18.984375 C 21.347656 -19.035156 21 -19.0625 20.65625 -19.0625 L 11.125 -19.0625 Z M 11.125 -15.25 "/></g></g></g><g fill="#000000" fill-opacity="1"><g transform="translate(230.393201, 66.254845)"><g><path d="M 0.796875 0 L 0.796875 -27.796875 L 22.640625 -27.796875 C 24.753906 -27.796875 26.601562 -27.335938 28.1875 -26.421875 C 29.78125 -25.515625 31.023438 -24.257812 31.921875 -22.65625 C 32.828125 -21.050781 33.28125 -19.21875 33.28125 -17.15625 C 33.28125 -15.144531 32.84375 -13.335938 31.96875 -11.734375 C 31.09375 -10.128906 29.890625 -8.878906 28.359375 -7.984375 L 33.28125 0 L 21.046875 0 L 17.203125 -6.515625 L 11.125 -6.515625 L 11.125 0 Z M 11.125 -15.25 L 20.65625 -15.25 C 21 -15.25 21.347656 -15.273438 21.703125 -15.328125 C 22.066406 -15.378906 22.363281 -15.535156 22.59375 -15.796875 C 22.832031 -16.066406 22.953125 -16.519531 22.953125 -17.15625 C 22.953125 -17.789062 22.832031 -18.238281 22.59375 -18.5 C 22.363281 -18.769531 22.066406 -18.929688 21.703125 -18.984375 C 21.347656 -19.035156 21 -19.0625 20.65625 -19.0625 L 11.125 -19.0625 Z M 11.125 -15.25 "/></g></g></g><g fill="#000000" fill-opacity="1"><g transform="translate(264.065452, 66.254845)"><g><path d="M 0.796875 0 L 0.796875 -27.796875 L 30.1875 -27.796875 L 30.1875 -19.859375 L 11.125 -19.859375 L 11.125 -17.28125 L 30.1875 -17.28125 L 30.1875 -10.53125 L 11.125 -10.53125 L 11.125 -7.9375 L 30.1875 -7.9375 L 30.1875 0 Z M 0.796875 0 "/></g></g></g><g fill="#000000" fill-opacity="1"><g transform="translate(294.640466, 66.254845)"><g><path d="M 18.15625 0.390625 C 14.363281 0.390625 11.144531 0.113281 8.5 -0.4375 C 5.851562 -0.988281 3.835938 -2 2.453125 -3.46875 C 1.078125 -4.945312 0.390625 -7.0625 0.390625 -9.8125 L 10.71875 -9.8125 C 10.71875 -9.363281 10.914062 -8.96875 11.3125 -8.625 C 11.71875 -8.28125 12.484375 -8.015625 13.609375 -7.828125 C 14.734375 -7.640625 16.378906 -7.546875 18.546875 -7.546875 C 20.585938 -7.546875 22.109375 -7.59375 23.109375 -7.6875 C 24.117188 -7.78125 24.78125 -7.929688 25.09375 -8.140625 C 25.414062 -8.347656 25.578125 -8.625 25.578125 -8.96875 C 25.578125 -9.375 25.410156 -9.675781 25.078125 -9.875 C 24.753906 -10.070312 24.0625 -10.21875 23 -10.3125 C 21.9375 -10.40625 20.320312 -10.476562 18.15625 -10.53125 C 13.96875 -10.65625 10.601562 -11.007812 8.0625 -11.59375 C 5.519531 -12.175781 3.671875 -13.097656 2.515625 -14.359375 C 1.367188 -15.617188 0.796875 -17.320312 0.796875 -19.46875 C 0.796875 -22.53125 2.25 -24.75 5.15625 -26.125 C 8.070312 -27.507812 12.269531 -28.203125 17.75 -28.203125 C 21.382812 -28.203125 24.457031 -27.882812 26.96875 -27.25 C 29.488281 -26.613281 31.410156 -25.585938 32.734375 -24.171875 C 34.054688 -22.753906 34.71875 -20.851562 34.71875 -18.46875 L 24.390625 -18.46875 C 24.390625 -19.207031 23.78125 -19.6875 22.5625 -19.90625 C 21.34375 -20.132812 19.472656 -20.25 16.953125 -20.25 C 15.335938 -20.25 14.113281 -20.21875 13.28125 -20.15625 C 12.445312 -20.09375 11.878906 -19.96875 11.578125 -19.78125 C 11.273438 -19.59375 11.125 -19.316406 11.125 -18.953125 C 11.125 -18.597656 11.285156 -18.34375 11.609375 -18.1875 C 11.941406 -18.03125 12.613281 -17.925781 13.625 -17.875 C 14.632812 -17.820312 16.144531 -17.753906 18.15625 -17.671875 C 20.90625 -17.566406 23.367188 -17.398438 25.546875 -17.171875 C 27.734375 -16.953125 29.59375 -16.5625 31.125 -16 C 32.664062 -15.445312 33.847656 -14.632812 34.671875 -13.5625 C 35.492188 -12.488281 35.90625 -11.039062 35.90625 -9.21875 C 35.90625 -6.675781 35.21875 -4.707031 33.84375 -3.3125 C 32.46875 -1.925781 30.460938 -0.960938 27.828125 -0.421875 C 25.191406 0.117188 21.96875 0.390625 18.15625 0.390625 Z M 18.15625 0.390625 "/></g></g></g><g fill="#000000" fill-opacity="1"><g transform="translate(330.933417, 66.254845)"><g><path d="M 18.15625 0.390625 C 14.363281 0.390625 11.144531 0.113281 8.5 -0.4375 C 5.851562 -0.988281 3.835938 -2 2.453125 -3.46875 C 1.078125 -4.945312 0.390625 -7.0625 0.390625 -9.8125 L 10.71875 -9.8125 C 10.71875 -9.363281 10.914062 -8.96875 11.3125 -8.625 C 11.71875 -8.28125 12.484375 -8.015625 13.609375 -7.828125 C 14.734375 -7.640625 16.378906 -7.546875 18.546875 -7.546875 C 20.585938 -7.546875 22.109375 -7.59375 23.109375 -7.6875 C 24.117188 -7.78125 24.78125 -7.929688 25.09375 -8.140625 C 25.414062 -8.347656 25.578125 -8.625 25.578125 -8.96875 C 25.578125 -9.375 25.410156 -9.675781 25.078125 -9.875 C 24.753906 -10.070312 24.0625 -10.21875 23 -10.3125 C 21.9375 -10.40625 20.320312 -10.476562 18.15625 -10.53125 C 13.96875 -10.65625 10.601562 -11.007812 8.0625 -11.59375 C 5.519531 -12.175781 3.671875 -13.097656 2.515625 -14.359375 C 1.367188 -15.617188 0.796875 -17.320312 0.796875 -19.46875 C 0.796875 -22.53125 2.25 -24.75 5.15625 -26.125 C 8.070312 -27.507812 12.269531 -28.203125 17.75 -28.203125 C 21.382812 -28.203125 24.457031 -27.882812 26.96875 -27.25 C 29.488281 -26.613281 31.410156 -25.585938 32.734375 -24.171875 C 34.054688 -22.753906 34.71875 -20.851562 34.71875 -18.46875 L 24.390625 -18.46875 C 24.390625 -19.207031 23.78125 -19.6875 22.5625 -19.90625 C 21.34375 -20.132812 19.472656 -20.25 16.953125 -20.25 C 15.335938 -20.25 14.113281 -20.21875 13.28125 -20.15625 C 12.445312 -20.09375 11.878906 -19.96875 11.578125 -19.78125 C 11.273438 -19.59375 11.125 -19.316406 11.125 -18.953125 C 11.125 -18.597656 11.285156 -18.34375 11.609375 -18.1875 C 11.941406 -18.03125 12.613281 -17.925781 13.625 -17.875 C 14.632812 -17.820312 16.144531 -17.753906 18.15625 -17.671875 C 20.90625 -17.566406 23.367188 -17.398438 25.546875 -17.171875 C 27.734375 -16.953125 29.59375 -16.5625 31.125 -16 C 32.664062 -15.445312 33.847656 -14.632812 34.671875 -13.5625 C 35.492188 -12.488281 35.90625 -11.039062 35.90625 -9.21875 C 35.90625 -6.675781 35.21875 -4.707031 33.84375 -3.3125 C 32.46875 -1.925781 30.460938 -0.960938 27.828125 -0.421875 C 25.191406 0.117188 21.96875 0.390625 18.15625 0.390625 Z M 18.15625 0.390625 "/></g></g></g></svg>